<svg id="Layer_1" data-name="Layer 1" xmlns="http://www.w3.org/2000/svg" viewBox="0 0 56 34"><defs><style>.cls-1{fill:none;}.cls-2{fill:#66a3d5;fill-rule:evenodd;}</style></defs><title>TC-Logo</title><rect class="cls-1" x="-1071.83" y="-2015.44" width="1280" height="4250"/><rect class="cls-1" x="-871.48" y="-2012.11" width="1280" height="4250"/><path class="cls-2" d="M44.38,25.43a5.7,5.7,0,0,1-4.77,2.09,6.21,6.21,0,0,1-5-2.44q-2-2.44-2-7.34t1.88-7.57A5.94,5.94,0,0,1,39.6,7.5a6,6,0,0,1,4.82,1.9,8.31,8.31,0,0,1,1.49,3.16H52a10.52,10.52,0,0,0-2-5.43Q46.63,2.31,39.37,2.31a14.68,14.68,0,0,0-2.19.17H2.35V2.86H2.17V8H2.35V8.38h8.56V32H17V8.38H28.54a18.14,18.14,0,0,0-2.17,9.28q0,7,3.56,11.1t9.77,4a11.63,11.63,0,0,0,8.23-3,13.11,13.11,0,0,0,4-7.74h-6A9.18,9.18,0,0,1,44.38,25.43Z"/></svg>